<?xml version="1.0" encoding="UTF-8"?>
<svg width="24px" height="24px" viewBox="0 0 24 24" version="1.1" xmlns="http://www.w3.org/2000/svg" xmlns:xlink="http://www.w3.org/1999/xlink">
    <title>icons/refresh@2x</title>
    <g id="icons/refresh" stroke="none" stroke-width="1" fill="none" fill-rule="evenodd">
        <rect id="Box-24pt" x="0" y="0" width="24" height="24"></rect>
        <path d="M8.14919991,6.52769262 C6.21739398,7.80081742 5,9.97645023 5,12.3754 C5,15.421727 6.96251693,18.0720901 9.76856239,19.0130342 L10,19.0718123 L10,21.1377745 C6.00821985,20.2164609 3,16.6470883 3,12.3754 C3,9.32416592 4.51839352,6.62757161 6.84079765,5 L4.9,5 L4.9,3 L10.1491999,3 L10.1491999,8.24919991 L8.14919991,8.24919991 L8.14919991,6.52769262 Z M16,17.6100819 C17.9318059,16.3369571 19.1491999,14.1613243 19.1491999,11.7623745 C19.1491999,8.71604753 17.186683,6.0656844 14.3806375,5.12474034 L14.1491999,5.06596219 L14.1491999,3 C18.1409801,3.92131368 21.1491999,7.49068626 21.1491999,11.7623745 C21.1491999,14.8136086 19.6308064,17.5102029 17.3084023,19.1377745 L19.2491999,19.1377745 L19.2491999,21.1377745 L14,21.1377745 L14,15.8885746 L16,15.8885746 L16,17.6100819 Z" id="🎨-Style" fill="#0817A6"></path>
    </g>
</svg>